<?xml version="1.0" encoding="UTF-8" standalone="no"?>
<!DOCTYPE svg PUBLIC "-//W3C//DTD SVG 1.1//EN"
 "http://www.w3.org/Graphics/SVG/1.1/DTD/svg11.dtd">
<!-- Generated by graphviz version 14.1.4 (0)
 -->
<!-- Title: G Pages: 1 -->
<svg width="152pt" height="548pt"
 viewBox="0.00 0.00 152.00 548.00" xmlns="http://www.w3.org/2000/svg" xmlns:xlink="http://www.w3.org/1999/xlink">
<g id="graph0" class="graph" transform="scale(1 1) rotate(0) translate(4 544)">
<title>G</title>
<polygon fill="white" stroke="none" points="-4,4 -4,-544 147.65,-544 147.65,4 -4,4"/>
<!-- 前置工作 -->
<g id="node1" class="node">
<title>前置工作</title>
<ellipse fill="none" stroke="black" cx="71.82" cy="-522" rx="47.45" ry="18"/>
<text xml:space="preserve" text-anchor="middle" x="71.82" y="-516.2" font-family="Times,serif" font-size="14.00">前置工作</text>
</g>
<!-- 挂载分区 -->
<g id="node2" class="node">
<title>挂载分区</title>
<ellipse fill="none" stroke="black" cx="71.82" cy="-450" rx="47.45" ry="18"/>
<text xml:space="preserve" text-anchor="middle" x="71.82" y="-444.2" font-family="Times,serif" font-size="14.00">挂载分区</text>
</g>
<!-- 前置工作&#45;&gt;挂载分区 -->
<g id="edge1" class="edge">
<title>前置工作&#45;&gt;挂载分区</title>
<path fill="none" stroke="black" d="M71.82,-503.7C71.82,-496.41 71.82,-487.73 71.82,-479.54"/>
<polygon fill="black" stroke="black" points="75.32,-479.62 71.82,-469.62 68.32,-479.62 75.32,-479.62"/>
</g>
<!-- 创建子卷 -->
<g id="node3" class="node">
<title>创建子卷</title>
<ellipse fill="none" stroke="black" cx="71.82" cy="-378" rx="47.45" ry="18"/>
<text xml:space="preserve" text-anchor="middle" x="71.82" y="-372.2" font-family="Times,serif" font-size="14.00">创建子卷</text>
</g>
<!-- 挂载分区&#45;&gt;创建子卷 -->
<g id="edge2" class="edge">
<title>挂载分区&#45;&gt;创建子卷</title>
<path fill="none" stroke="black" d="M71.82,-431.7C71.82,-424.41 71.82,-415.73 71.82,-407.54"/>
<polygon fill="black" stroke="black" points="75.32,-407.62 71.82,-397.62 68.32,-407.62 75.32,-407.62"/>
</g>
<!-- 挂载子卷 -->
<g id="node4" class="node">
<title>挂载子卷</title>
<ellipse fill="none" stroke="black" cx="71.82" cy="-306" rx="47.45" ry="18"/>
<text xml:space="preserve" text-anchor="middle" x="71.82" y="-300.2" font-family="Times,serif" font-size="14.00">挂载子卷</text>
</g>
<!-- 创建子卷&#45;&gt;挂载子卷 -->
<g id="edge3" class="edge">
<title>创建子卷&#45;&gt;挂载子卷</title>
<path fill="none" stroke="black" d="M71.82,-359.7C71.82,-352.41 71.82,-343.73 71.82,-335.54"/>
<polygon fill="black" stroke="black" points="75.32,-335.62 71.82,-325.62 68.32,-335.62 75.32,-335.62"/>
</g>
<!-- 安装系统 -->
<g id="node5" class="node">
<title>安装系统</title>
<ellipse fill="none" stroke="black" cx="71.82" cy="-234" rx="47.45" ry="18"/>
<text xml:space="preserve" text-anchor="middle" x="71.82" y="-228.2" font-family="Times,serif" font-size="14.00">安装系统</text>
</g>
<!-- 挂载子卷&#45;&gt;安装系统 -->
<g id="edge4" class="edge">
<title>挂载子卷&#45;&gt;安装系统</title>
<path fill="none" stroke="black" d="M71.82,-287.7C71.82,-280.41 71.82,-271.73 71.82,-263.54"/>
<polygon fill="black" stroke="black" points="75.32,-263.62 71.82,-253.62 68.32,-263.62 75.32,-263.62"/>
</g>
<!-- 安装软件/插件 -->
<g id="node6" class="node">
<title>安装软件/插件</title>
<ellipse fill="none" stroke="black" cx="71.82" cy="-162" rx="71.82" ry="18"/>
<text xml:space="preserve" text-anchor="middle" x="71.82" y="-156.95" font-family="Times,serif" font-size="14.00">安装软件/插件</text>
</g>
<!-- 安装系统&#45;&gt;安装软件/插件 -->
<g id="edge5" class="edge">
<title>安装系统&#45;&gt;安装软件/插件</title>
<path fill="none" stroke="black" d="M71.82,-215.7C71.82,-208.41 71.82,-199.73 71.82,-191.54"/>
<polygon fill="black" stroke="black" points="75.32,-191.62 71.82,-181.62 68.32,-191.62 75.32,-191.62"/>
</g>
<!-- 配置文件 -->
<g id="node7" class="node">
<title>配置文件</title>
<ellipse fill="none" stroke="black" cx="71.82" cy="-90" rx="47.45" ry="18"/>
<text xml:space="preserve" text-anchor="middle" x="71.82" y="-84.2" font-family="Times,serif" font-size="14.00">配置文件</text>
</g>
<!-- 安装软件/插件&#45;&gt;配置文件 -->
<g id="edge6" class="edge">
<title>安装软件/插件&#45;&gt;配置文件</title>
<path fill="none" stroke="black" d="M71.82,-143.7C71.82,-136.41 71.82,-127.73 71.82,-119.54"/>
<polygon fill="black" stroke="black" points="75.32,-119.62 71.82,-109.62 68.32,-119.62 75.32,-119.62"/>
</g>
<!-- 启动服务 -->
<g id="node8" class="node">
<title>启动服务</title>
<ellipse fill="none" stroke="black" cx="71.82" cy="-18" rx="47.45" ry="18"/>
<text xml:space="preserve" text-anchor="middle" x="71.82" y="-12.2" font-family="Times,serif" font-size="14.00">启动服务</text>
</g>
<!-- 配置文件&#45;&gt;启动服务 -->
<g id="edge7" class="edge">
<title>配置文件&#45;&gt;启动服务</title>
<path fill="none" stroke="black" d="M71.82,-71.7C71.82,-64.41 71.82,-55.73 71.82,-47.54"/>
<polygon fill="black" stroke="black" points="75.32,-47.62 71.82,-37.62 68.32,-47.62 75.32,-47.62"/>
</g>
</g>
</svg>
